<svg xmlns="http://www.w3.org/2000/svg" width="1920" height="289.66" viewBox="0 0 1920 289.66"><path d="M0,1300.5H1920V1010.84l-33.366,32.627-39.3,47.468L1725.6,1164.1l-34.8-20.562-51.6,2.562-70.72-48.49-88.983,3.705-39.3,59.33-19.041-11.777L1359.6,1194.1l-21.356-19.2-33.762,13.92-61.554-25.957-46.723-48.2-60.068,17.055-20.03-33.37-33.863,10.615L1001.9,1070.9l-87.935,46.322-27.745,2.625L848.4,1139.132l-12.609,21.513-37.819,18.539-24.473,5.934-36.523-14.9-28.179,23.766-26.7-20.056-63.6,18.607-26.7-3.71-68.965-58.585L507.258,1142.1l-58.46-43.6-49.812,29.5-75.647-5.187L295.2,1114.9l-26.7,31.139-40.045-37.071L181.692,1133.2l-14.086-8.158-17.8,8.9-57.1-62.3L0,1017.515V1300.5Z" transform="translate(0 -1010.84)"/></svg>